<svg id="disclaimer" xmlns="http://www.w3.org/2000/svg" width="24" height="24" viewBox="0 0 24 24">
  <path id="Path_8118" data-name="Path 8118" d="M0,0H24V24H0Z" fill="none"/>
  <g id="warning" transform="translate(2 -18.882)">
    <g id="Group_5001" data-name="Group 5001" transform="translate(0 20.882)">
      <path id="Path_8179" data-name="Path 8179" d="M219.257,333.382a1.032,1.032,0,0,0,0,2.065,1.033,1.033,0,0,0,0-2.065Z" transform="translate(-209.258 -319.974)" fill="#4a4a4a" stroke="#4a4a4a" stroke-width="0.5"/>
      <path id="Path_8180" data-name="Path 8180" d="M19.513,38.019a3.771,3.771,0,0,0,.008-3.691L13.083,22.741a3.482,3.482,0,0,0-6.159,0L.477,34.336A3.8,3.8,0,0,0,.49,38.049a3.5,3.5,0,0,0,3.071,1.833h12.86A3.519,3.519,0,0,0,19.513,38.019Zm-1.4-.837a1.931,1.931,0,0,1-1.7,1.021H3.557a1.9,1.9,0,0,1-1.677-1,2.09,2.09,0,0,1,0-2.038l6.447-11.6a1.9,1.9,0,0,1,3.363,0l6.442,11.6A2.063,2.063,0,0,1,18.115,37.182Z" transform="translate(0 -20.882)" fill="#4a4a4a" stroke="#4a4a4a" stroke-width="0.5"/>
      <path id="Path_8181" data-name="Path 8181" d="M218.522,157.205a1.123,1.123,0,0,0-.8,1.127c.025.326.045.657.07.983.07,1.243.14,2.461.211,3.7a.756.756,0,0,0,.772.727.772.772,0,0,0,.772-.752c0-.256,0-.491.025-.752.045-.8.095-1.594.14-2.391.025-.516.07-1.032.095-1.548a1.275,1.275,0,0,0-.095-.516A1.035,1.035,0,0,0,218.522,157.205Z" transform="translate(-208.778 -151.244)" fill="#4a4a4a" stroke="#4a4a4a" stroke-width="0.5"/>
    </g>
  </g>
</svg>
